<?xml version="1.0" standalone="no"?>
<!DOCTYPE svg PUBLIC "-//W3C//DTD SVG 20010904//EN"
 "http://www.w3.org/TR/2001/REC-SVG-20010904/DTD/svg10.dtd">
<svg version="1.0" xmlns="http://www.w3.org/2000/svg"
 width="700.000000pt" height="700.000000pt" viewBox="0 0 700.000000 700.000000"
 preserveAspectRatio="xMidYMid meet">
<metadata>
Created by potrace 1.11, written by Peter Selinger 2001-2013
</metadata>
<g transform="translate(0.000000,700.000000) scale(0.100000,-0.100000)"
fill="#000000" stroke="none">
<path d="M1969 6706 c-2 -2 -29 -6 -59 -9 -165 -18 -357 -115 -489 -249 -147
-149 -233 -336 -249 -546 -10 -119 -7 -4772 2 -4847 17 -134 69 -267 150 -388
125 -183 333 -316 568 -361 113 -22 3111 -21 3213 0 39 9 78 17 88 19 70 15
213 85 287 140 74 54 220 215 220 241 0 4 6 15 14 23 24 27 84 182 101 266 16
74 18 256 19 2480 1 1784 -2 2420 -10 2477 -17 106 -39 180 -83 269 -113 228
-311 389 -566 461 l-80 23 -1561 2 c-858 2 -1562 1 -1565 -1z m3077 -594 c85
-25 169 -112 194 -202 6 -22 10 -887 10 -2421 l0 -2386 -31 -62 c-37 -74 -103
-131 -175 -152 -67 -19 -3025 -20 -3091 -1 -61 18 -138 83 -170 145 l-28 52
-2 2406 -3 2406 30 60 c44 88 105 137 199 160 56 14 3019 9 3067 -5z"/>
<path d="M3425 2031 c-60 -15 -122 -59 -172 -124 -27 -34 -46 -118 -41 -180
12 -142 116 -249 257 -263 82 -9 151 10 211 57 248 196 54 585 -255 510z"/>
</g>
</svg>
